<svg id="Layer_1" data-name="Layer 1" xmlns="http://www.w3.org/2000/svg" viewBox="0 0 387.54 82.32"><defs><style>.cls-1{font-size:74.91px;fill:#fff;font-family:Intro, Intro ;}.cls-2{letter-spacing:-0.02em;}.cls-3{letter-spacing:-0.07em;}.cls-4{letter-spacing:-0.09em;}.cls-5{letter-spacing:0.01em;}.cls-6{letter-spacing:-0.02em;}.cls-7{fill:#429b52;}.cls-8{fill:#7bc473;}</style></defs><text class="cls-1" transform="translate(56.15 63.67)">B<tspan class="cls-2" x="51.39" y="0">i</tspan><tspan class="cls-3" x="80.75" y="0">d</tspan><tspan class="cls-4" x="131.16" y="0"> </tspan><tspan x="144.72" y="0">B</tspan><tspan class="cls-5" x="196.1" y="0">a</tspan><tspan class="cls-6" x="249.89" y="0">l</tspan><tspan x="289.74" y="0">l</tspan></text><path class="cls-7" d="M140.17,305.52a4.11,4.11,0,0,1,1.06.14,26.21,26.21,0,0,0,7.68-15.44,4.22,4.22,0,0,1,.06-6.17,26.2,26.2,0,0,0-7.74-15.93,4.59,4.59,0,0,1-1.06.13,4.25,4.25,0,0,1-4.24-4.16,26.31,26.31,0,0,0-26.48.17,4.23,4.23,0,0,1-4.23,4,3.86,3.86,0,0,1-.84-.08,26.18,26.18,0,0,0-7.68,15.9A4.23,4.23,0,0,1,98,287.16a4.19,4.19,0,0,1-1.29,3,26.24,26.24,0,0,0,7.63,15.41,3.86,3.86,0,0,1,.84-.09,4.24,4.24,0,0,1,4.23,4,26.28,26.28,0,0,0,26.48.16A4.25,4.25,0,0,1,140.17,305.52Z" transform="translate(-96.7 -249.73)"/><circle class="cls-8" cx="26.14" cy="37.16" r="20.64"/></svg>