<svg id="Layer_1" data-name="Layer 1" xmlns="http://www.w3.org/2000/svg" viewBox="0 0 384.99 53.11"><defs><style>.cls-1{fill:#fff;}.cls-2{fill:#429b52;}.cls-3{fill:#7bc473;}</style></defs><path class="cls-1" d="M194.12,286.13c4.27,2.18,6.29,6.07,6.29,10.72-.07,9.13-5.61,16.55-16.33,16.55H159.52V261h22.39a16.08,16.08,0,0,1,16.33,16.1A12.48,12.48,0,0,1,194.12,286.13ZM172.47,273v8.46h8.47c5.32,0,5.32-8.46-.08-8.46Zm0,19.63v8.91h10.72c5.39,0,5.31-8.91-.08-8.91Z" transform="translate(-96.7 -260.29)"/><path class="cls-1" d="M233.15,301.64V313.4H206.56V301.64h6.66v-29h-6.14V261h25.54v11.68h-6.14v29Z" transform="translate(-96.7 -260.29)"/><path class="cls-1" d="M260,313.4H240.26V261H260C294.2,261.11,294.2,313.25,260,313.4Zm-6.37-12.21H260c16.7,0,16.7-28,0-28h-6.37Z" transform="translate(-96.7 -260.29)"/><path class="cls-1" d="M338.84,286.13c4.27,2.18,6.29,6.07,6.29,10.72-.07,9.13-5.62,16.55-16.33,16.55H304.23V261h22.4A16.08,16.08,0,0,1,343,277.07,12.48,12.48,0,0,1,338.84,286.13ZM317.19,273v8.46h8.47c5.32,0,5.32-8.46-.08-8.46Zm0,19.63v8.91H327.9c5.4,0,5.32-8.91-.07-8.91Z" transform="translate(-96.7 -260.29)"/><path class="cls-1" d="M385.88,306.81H365.21l-3.07,6.59H349v-1.95l23.59-51.16h5.77l23.67,51.16v1.95H389Zm-10.41-25.32-5.84,13.78h11.83Z" transform="translate(-96.7 -260.29)"/><path class="cls-1" d="M422.81,301.34h19V313.4H409.33V261h13.48Z" transform="translate(-96.7 -260.29)"/><path class="cls-1" d="M462.66,301.34h19V313.4H449.18V261h13.48Z" transform="translate(-96.7 -260.29)"/><path class="cls-2" d="M140.17,305.52a4.11,4.11,0,0,1,1.06.14,26.21,26.21,0,0,0,7.68-15.44,4.22,4.22,0,0,1,.06-6.17,26.2,26.2,0,0,0-7.74-15.93,4.59,4.59,0,0,1-1.06.13,4.25,4.25,0,0,1-4.24-4.16,26.31,26.31,0,0,0-26.48.17,4.23,4.23,0,0,1-4.23,4,3.86,3.86,0,0,1-.84-.08,26.18,26.18,0,0,0-7.68,15.9A4.23,4.23,0,0,1,98,287.16a4.19,4.19,0,0,1-1.29,3,26.24,26.24,0,0,0,7.63,15.41,3.86,3.86,0,0,1,.84-.09,4.24,4.24,0,0,1,4.23,4,26.28,26.28,0,0,0,26.48.16A4.25,4.25,0,0,1,140.17,305.52Z" transform="translate(-96.7 -260.29)"/><circle class="cls-3" cx="26.14" cy="26.6" r="20.64"/></svg>