<svg id="Layer_1" data-name="Layer 1" xmlns="http://www.w3.org/2000/svg" xmlns:xlink="http://www.w3.org/1999/xlink" viewBox="0 0 333.95 211.53"><defs><style>.cls-1{fill:none;}.cls-2{isolation:isolate;}.cls-3{fill:#9b519f;}.cls-4{fill:#d997c3;}.cls-5{clip-path:url(#clip-path);}.cls-6{fill:#231422;}.cls-7{clip-path:url(#clip-path-2);}</style><clipPath id="clip-path" transform="translate(-99.6 -181.93)"><rect class="cls-1" x="272.31" y="190.24" width="97.65" height="25.09"/></clipPath><clipPath id="clip-path-2" transform="translate(-99.6 -181.93)"><polygon class="cls-1" points="119.07 336.1 160.49 239.11 258.64 239.11 217.22 336.1 119.07 336.1"/></clipPath></defs><g class="cls-2"><path class="cls-3" d="M376.46,319.28l-4-2.78a1,1,0,0,1-.5-.63l4,2.69A1.12,1.12,0,0,0,376.46,319.28Z" transform="translate(-99.6 -181.93)"/><path class="cls-3" d="M262.22,316.51l-3.92,2.76a1.22,1.22,0,0,0,.5-.59l3.87-2.69A1,1,0,0,1,262.22,316.51Z" transform="translate(-99.6 -181.93)"/><path class="cls-3" d="M398.39,338.22a7.47,7.47,0,0,0-.19.78h-.05Z" transform="translate(-99.6 -181.93)"/><path class="cls-3" d="M237.49,339a6.82,6.82,0,0,0-.28-1.3l.44,1.31Z" transform="translate(-99.6 -181.93)"/><path class="cls-3" d="M398.2,319.3a4.21,4.21,0,0,0,.19.47l-.24-.47Z" transform="translate(-99.6 -181.93)"/><path class="cls-3" d="M237.21,320.12a2.72,2.72,0,0,0,.28-.8h.16Z" transform="translate(-99.6 -181.93)"/><path class="cls-3" d="M318,336.12c-45.26,0-83.15,5.45-92.85,12.76l3.9-2.94c9.3-7,45.59-12.23,89-12.23,25.21,0,48,1.77,64.55,4.62,11.9,2.06,20.53,4.68,24.41,7.62l3.9,2.94C401.14,341.58,363.25,336.12,318,336.12Z" transform="translate(-99.6 -181.93)"/><path class="cls-3" d="M427.58,328.57l3.91,3.06a8.65,8.65,0,0,1,2.06,2.18l-4.19-3.37A7.5,7.5,0,0,0,427.58,328.57Z" transform="translate(-99.6 -181.93)"/><path class="cls-3" d="M204.46,331.63l3.91-3.06a7.4,7.4,0,0,0-1.79,1.88l-4.19,3.37A8.9,8.9,0,0,1,204.46,331.63Z" transform="translate(-99.6 -181.93)"/><path class="cls-3" d="M207.87,349l3.85,2.89a13.49,13.49,0,0,0-5.14-1.7l-4.19-2.82C205.07,347.76,207,348.32,207.87,349Z" transform="translate(-99.6 -181.93)"/><path class="cls-3" d="M424.13,351.86l1.54-1.16.38-.29.2-.14c.57-.44,1.15-.87,1.73-1.3.86-.65,2.85-1.22,5.57-1.66l-4.19,2.83A13.35,13.35,0,0,0,424.13,351.86Z" transform="translate(-99.6 -181.93)"/><path class="cls-3" d="M351.71,334.82v-13.5c33.7,2.32,57.52,8,57.52,14.66v13.5C409.23,342.83,385.41,337.14,351.71,334.82Z" transform="translate(-99.6 -181.93)"/><path class="cls-3" d="M318,333.71c-50.4,0-91.26,7.06-91.26,15.77V336c0-8.71,40.86-15.77,91.26-15.77,11.92,0,23.3.39,33.74,1.11v13.5C341.27,334.11,329.89,333.71,318,333.71Z" transform="translate(-99.6 -181.93)"/><path class="cls-3" d="M433.55,333.81v13.5c-3.7.59-6,1.44-6,2.38v-13.5C427.51,335.24,429.85,334.4,433.55,333.81Z" transform="translate(-99.6 -181.93)"/><path class="cls-3" d="M208.34,336.19v13.5c0-.94-2.29-1.77-6-2.36V333.82C206.05,334.41,208.34,335.25,208.34,336.19Z" transform="translate(-99.6 -181.93)"/><path class="cls-3" d="M428,336.91,424.13,334a1.27,1.27,0,0,1-.62-.93c0-1.14,2.84-2.17,5.85-2.65l4.19,3.37c-3.7.59-6,1.43-6,2.38A1,1,0,0,0,428,336.91Z" transform="translate(-99.6 -181.93)"/><path class="cls-3" d="M211.72,334l-1.73,1.3-2.13,1.59a.94.94,0,0,0,.48-.72c0-.94-2.29-1.78-6-2.37l4.19-3.37c3,.49,5.76,1.5,5.76,2.64A1.27,1.27,0,0,1,211.72,334Z" transform="translate(-99.6 -181.93)"/><path class="cls-4" d="M409.23,336v13.5c0,8.71-40.86,15.77-91.26,15.77s-91.26-7.06-91.26-15.77V336c0,8.71,40.86,15.77,91.26,15.77S409.23,344.69,409.23,336Z" transform="translate(-99.6 -181.93)"/><path class="cls-3" d="M226.71,336c0,1.21.79,2.39,2.3,3.53l-3.9-2.94c-1.57-1.19-2.4-2.42-2.4-3.69,0-9.09,42.65-16.46,95.26-16.46,43.21,0,79.7,5,91.36,11.78a45.43,45.43,0,0,1-2.38,4.26c-3.87-2.94-12.51-5.57-24.43-7.63C366,322,343.18,320.21,318,320.21,267.57,320.21,226.71,327.27,226.71,336Z" transform="translate(-99.6 -181.93)"/><path class="cls-3" d="M409.23,336c0-1.21-.79-2.39-2.28-3.52a45.43,45.43,0,0,0,2.38-4.26c2.54,1.49,3.9,3.05,3.9,4.68,0,1.27-.83,2.51-2.41,3.69l-3.9,2.95C408.43,338.38,409.23,337.19,409.23,336Z" transform="translate(-99.6 -181.93)"/><path class="cls-3" d="M208.43,356.93l-4-3.08c4.93,3.84,16.23,7.27,31.89,9.94l1.29,2.34C223.74,363.76,212.94,360.45,208.43,356.93Z" transform="translate(-99.6 -181.93)"/><path class="cls-3" d="M431.47,353.84l-2.17,1.7-1.78,1.39c-4.53,3.53-15.41,6.86-29.37,9.23l1.19-2.33C415.13,361.15,426.52,357.71,431.47,353.84Z" transform="translate(-99.6 -181.93)"/><path class="cls-3" d="M237.66,346.43l-1.29,3.85c-18.11-3.08-30.4-7.19-33.73-11.77l4.22-2.84C209.83,339.75,221.69,343.71,237.66,346.43Z" transform="translate(-99.6 -181.93)"/><path class="cls-4" d="M406.93,353,403,356c-8.88,6.7-43.6,11.7-85.06,11.7s-76.18-5-85.06-11.7h0l-.39-.3-.2-.14-.39-.3-.39-.29-.19-.15-.39-.29L229,353c9.29,7,45.59,12.23,89,12.23S397.64,360,406.93,353Z" transform="translate(-99.6 -181.93)"/><path class="cls-3" d="M236.37,350.28v13.51C218.26,360.7,206,356.6,202.64,352v-13.5C206,343.09,218.26,347.2,236.37,350.28Z" transform="translate(-99.6 -181.93)"/><path class="cls-3" d="M433.3,338.52V352c-3.37,4.6-15.74,8.71-34,11.8V350.32C417.56,347.24,429.93,343.12,433.3,338.52Z" transform="translate(-99.6 -181.93)"/><path class="cls-3" d="M429.08,335.68l4.22,2.84c-3.37,4.6-15.74,8.72-34,11.8l-1.19-3.86C414.14,343.75,426.08,339.78,429.08,335.68Z" transform="translate(-99.6 -181.93)"/><path class="cls-4" d="M403,329.5c1.3,1,2.6,2,3.9,2.94,1.5,1.14,2.3,2.32,2.3,3.54,0,8.71-40.86,15.77-91.26,15.77s-91.26-7.06-91.26-15.77c0-1.22.8-2.4,2.3-3.54l3.9-2.94c-1.44,1.09-2.2,2.22-2.2,3.38,0,8.33,39.07,15.08,87.26,15.08s87.26-6.75,87.26-15.08C405.23,331.72,404.47,330.59,403,329.5Z" transform="translate(-99.6 -181.93)"/><ellipse class="cls-4" cx="218.37" cy="150.95" rx="87.26" ry="15.08"/><path class="cls-3" d="M398.39,365.68a3.2,3.2,0,0,0-.19.48s-1.74,0-3.55,0c-10.92,0-20,1.32-22.2,2.83h0l4-2.78c2-1.41,9.4-2.46,18.19-2.46,1.62,0,3.19,0,4.69.11Z" transform="translate(-99.6 -181.93)"/><path class="cls-3" d="M258.29,366.19l3.93,2.76c-2.13-1.5-11.2-2.82-22.12-2.82-1.52,0-2.61,0-2.61,0a3,3,0,0,0-.23-.73c-.24-.5-.63-1.14-.89-1.62,1.2-.05,2.45-.07,3.73-.07C248.92,363.72,256.29,364.77,258.29,366.19Z" transform="translate(-99.6 -181.93)"/><path class="cls-3" d="M237.22,347.76a7,7,0,0,0,.27-1.32s1.1,0,2.61,0c12.15,0,22,1.64,22.57,3.34l-3.87,3.5c-.56-1.7-8.7-3-18.7-3-1.28,0-2.53,0-3.73.06Z" transform="translate(-99.6 -181.93)"/><path class="cls-3" d="M258.8,353.27v13.5c-.56-1.7-8.7-3-18.7-3-1.28,0-2.53,0-3.73.07V350.28c1.2,0,2.45-.06,3.73-.06C250.1,350.22,258.24,351.57,258.8,353.27Z" transform="translate(-99.6 -181.93)"/><path class="cls-3" d="M399.34,350.32v13.51c-1.5-.07-3.07-.11-4.69-.11-10.24,0-18.55,1.42-18.74,3.18V353.39c.19-1.76,8.5-3.17,18.74-3.17C396.27,350.22,397.84,350.25,399.34,350.32Z" transform="translate(-99.6 -181.93)"/><path class="cls-3" d="M398.2,346.46c.1.47.1.47,1.14,3.86-1.5-.07-3.07-.1-4.69-.1-10.24,0-18.55,1.41-18.74,3.17l-4-3.5c.19-1.74,10.27-3.46,22.7-3.46C396.46,346.43,398.2,346.47,398.2,346.46Z" transform="translate(-99.6 -181.93)"/><path class="cls-3" d="M429.36,330.44c-3,.48-5.85,1.51-5.85,2.65s2.71,2.12,5.57,2.59c-3,4.1-14.94,8.07-30.93,10.78.38,0-1.52,0-3.5,0-12.43,0-22.51,1.72-22.7,3.46-14.5,1.45-33.6,2.39-54,2.39-20.88,0-40.4-1-55.31-2.51-.56-1.7-10.42-3.34-22.57-3.34-1.85,0-3.07,0-2.44,0-16-2.72-27.83-6.68-30.8-10.76,2.82-.48,5.48-1.48,5.48-2.58s-2.79-2.15-5.76-2.64c2.61-4.22,14.63-8.32,31.07-11.12-.62,0,.6,0,2.45,0,12.15,0,22-1.64,22.57-3.34,14.91-1.52,34.43-2.51,55.31-2.51,20.37,0,39.47.94,54,2.39.19,1.74,10.27,3.46,22.7,3.46,2,0,3.88-.05,3.5,0C414.62,322.09,426.72,326.2,429.36,330.44ZM318,349.34c52.61,0,95.26-7.37,95.26-16.46S370.58,316.42,318,316.42s-95.26,7.37-95.26,16.46,42.65,16.46,95.26,16.46" transform="translate(-99.6 -181.93)"/><path class="cls-3" d="M375.91,366.9l-4,2.69c-14.5,1.45-33.6,2.39-54,2.39-20.88,0-40.4-1-55.31-2.52l-3.87-2.69a589.55,589.55,0,0,0,59.18,2.8C339.07,369.57,358.86,368.6,375.91,366.9Z" transform="translate(-99.6 -181.93)"/><path class="cls-3" d="M372,349.89l4,3.5c-17.05,1.7-36.84,2.67-57.93,2.67-21.62,0-41.84-1-59.18-2.79l3.87-3.5c14.91,1.52,34.43,2.51,55.31,2.51C338.35,352.28,357.45,351.34,372,349.89Z" transform="translate(-99.6 -181.93)"/><path class="cls-3" d="M375.91,353.39V366.9c-17.05,1.7-36.84,2.67-57.93,2.67a589.55,589.55,0,0,1-59.18-2.8v-13.5c17.34,1.77,37.56,2.79,59.18,2.79C339.07,356.06,358.86,355.09,375.91,353.39Z" transform="translate(-99.6 -181.93)"/></g><g class="cls-2"><path class="cls-3" d="M376.46,293.28l-4-2.78a1,1,0,0,1-.5-.63l4,2.69A1.12,1.12,0,0,0,376.46,293.28Z" transform="translate(-99.6 -181.93)"/><path class="cls-3" d="M262.22,290.51l-3.92,2.76a1.25,1.25,0,0,0,.5-.58l3.87-2.69A1.09,1.09,0,0,1,262.22,290.51Z" transform="translate(-99.6 -181.93)"/><path class="cls-3" d="M398.39,312.22a7.47,7.47,0,0,0-.19.78h-.05Z" transform="translate(-99.6 -181.93)"/><path class="cls-3" d="M237.5,313a6.56,6.56,0,0,0-.28-1.29l.44,1.3Z" transform="translate(-99.6 -181.93)"/><path class="cls-3" d="M398.2,293.3a4.32,4.32,0,0,0,.19.48l-.24-.48Z" transform="translate(-99.6 -181.93)"/><path class="cls-3" d="M237.22,294.12a2.76,2.76,0,0,0,.28-.79h.16Z" transform="translate(-99.6 -181.93)"/><path class="cls-3" d="M318,310.12c-45.26,0-83.15,5.45-92.85,12.77l3.9-2.95c9.3-7,45.59-12.23,89-12.23,25.21,0,48,1.77,64.55,4.63,11.9,2.05,20.53,4.68,24.41,7.61l3.9,2.94C401.14,315.58,363.25,310.12,318,310.12Z" transform="translate(-99.6 -181.93)"/><path class="cls-3" d="M427.58,302.57l3.91,3.06a8.65,8.65,0,0,1,2.06,2.18l-4.19-3.37A7.5,7.5,0,0,0,427.58,302.57Z" transform="translate(-99.6 -181.93)"/><path class="cls-3" d="M204.46,305.63l2.15-1.68,1.76-1.38a7.43,7.43,0,0,0-1.79,1.89l-4.19,3.36A8.9,8.9,0,0,1,204.46,305.63Z" transform="translate(-99.6 -181.93)"/><path class="cls-3" d="M207.87,323l3.85,2.89a13.15,13.15,0,0,0-5.14-1.7l-4.19-2.83C205.07,321.76,207,322.33,207.87,323Z" transform="translate(-99.6 -181.93)"/><path class="cls-3" d="M424.13,325.86,428,323c.86-.65,2.85-1.22,5.57-1.65l-4.19,2.82A13.51,13.51,0,0,0,424.13,325.86Z" transform="translate(-99.6 -181.93)"/><path class="cls-3" d="M318,307.71c-50.4,0-91.26,7.07-91.26,15.77V310c0-8.71,40.86-15.77,91.26-15.77,9.79,0,19.21.27,28,.76v13.5C337.18,308,327.76,307.71,318,307.71Z" transform="translate(-99.6 -181.93)"/><path class="cls-3" d="M346,308.47V295c36.68,2,63.21,8,63.21,15v13.5C409.23,316.47,382.7,310.52,346,308.47Z" transform="translate(-99.6 -181.93)"/><path class="cls-3" d="M433.55,307.81v13.51c-3.7.59-6,1.43-6,2.37v-13.5C427.51,309.25,429.85,308.4,433.55,307.81Z" transform="translate(-99.6 -181.93)"/><path class="cls-3" d="M208.34,310.19v13.5c0-.93-2.29-1.77-6-2.36V307.82C206.05,308.41,208.34,309.25,208.34,310.19Z" transform="translate(-99.6 -181.93)"/><path class="cls-3" d="M428,310.91,424.13,308a1.27,1.27,0,0,1-.62-.93c0-1.14,2.84-2.17,5.85-2.65l4.19,3.37c-3.7.59-6,1.44-6,2.38A1,1,0,0,0,428,310.91Z" transform="translate(-99.6 -181.93)"/><path class="cls-3" d="M211.72,308l-3.86,2.89a1,1,0,0,0,.48-.73c0-.94-2.29-1.78-6-2.37l4.19-3.36c3,.48,5.76,1.5,5.76,2.63A1.28,1.28,0,0,1,211.72,308Z" transform="translate(-99.6 -181.93)"/><path class="cls-4" d="M409.23,310v13.5c0,8.71-40.86,15.77-91.26,15.77s-91.26-7.06-91.26-15.77V310c0,8.71,40.86,15.77,91.26,15.77S409.23,318.69,409.23,310Z" transform="translate(-99.6 -181.93)"/><path class="cls-3" d="M226.71,310c0,1.21.79,2.4,2.3,3.53l-3.9-2.94c-1.57-1.19-2.4-2.42-2.4-3.69,0-9.09,42.65-16.46,95.26-16.46,43.21,0,79.7,5,91.36,11.79a45.27,45.27,0,0,1-2.38,4.25c-3.87-2.94-12.51-5.57-24.43-7.63C366,296,343.18,294.21,318,294.21,267.57,294.21,226.71,301.27,226.71,310Z" transform="translate(-99.6 -181.93)"/><path class="cls-3" d="M409.23,310c0-1.21-.79-2.39-2.28-3.52a45.27,45.27,0,0,0,2.38-4.25c2.54,1.48,3.9,3.05,3.9,4.67,0,1.27-.83,2.51-2.41,3.7l-3.9,2.94C408.43,312.38,409.23,311.2,409.23,310Z" transform="translate(-99.6 -181.93)"/><path class="cls-3" d="M208.43,330.93l-4-3.08c4.93,3.84,16.23,7.27,31.89,9.94l1.29,2.35C223.74,337.76,212.94,334.45,208.43,330.93Z" transform="translate(-99.6 -181.93)"/><path class="cls-3" d="M431.47,327.85l-4,3.08c-4.53,3.54-15.4,6.87-29.36,9.23l1.18-2.33C415.13,335.16,426.52,331.71,431.47,327.85Z" transform="translate(-99.6 -181.93)"/><path class="cls-4" d="M406.93,327,403,330c-8.88,6.7-43.6,11.7-85.06,11.7s-76.18-5-85.06-11.7h0l-.39-.29-.2-.15-.39-.3-.39-.29-.19-.15-.39-.29L229,327c9.29,7,45.59,12.23,89,12.23S397.64,334,406.93,327Z" transform="translate(-99.6 -181.93)"/><path class="cls-3" d="M236.37,324.28v13.51C218.26,334.7,206,330.6,202.64,326V312.51C206,317.1,218.26,321.2,236.37,324.28Z" transform="translate(-99.6 -181.93)"/><path class="cls-3" d="M237.66,320.44l-1.29,3.84c-18.11-3.08-30.4-7.18-33.73-11.77l4.22-2.84C209.83,313.75,221.69,317.71,237.66,320.44Z" transform="translate(-99.6 -181.93)"/><path class="cls-3" d="M433.3,312.53V326c-3.37,4.6-15.74,8.71-34,11.8v-13.5C417.56,321.24,429.93,317.13,433.3,312.53Z" transform="translate(-99.6 -181.93)"/><path class="cls-3" d="M429.08,309.69l4.22,2.84c-3.37,4.6-15.74,8.71-34,11.8l-1.18-3.87C414.14,317.75,426.08,313.78,429.08,309.69Z" transform="translate(-99.6 -181.93)"/><path class="cls-4" d="M403,303.5l2.15,1.62,1.36,1c.13.1.25.21.39.3,1.5,1.13,2.3,2.31,2.3,3.53,0,8.71-40.86,15.77-91.26,15.77s-91.26-7.06-91.26-15.77c0-1.22.8-2.4,2.3-3.53h0l2-1.48.19-.14.2-.15.19-.15.39-.29.2-.15c.26-.19.53-.38.78-.59-1.44,1.09-2.2,2.22-2.2,3.38,0,8.33,39.07,15.08,87.26,15.08s87.26-6.75,87.26-15.08C405.23,305.72,404.47,304.59,403,303.5Z" transform="translate(-99.6 -181.93)"/><path class="cls-3" d="M398.21,320.46a40.18,40.18,0,0,0,1.13,3.87c-1.5-.07-3.07-.11-4.69-.11-10.24,0-18.55,1.42-18.74,3.18l-4-3.5c.19-1.75,10.27-3.47,22.7-3.47C396.46,320.43,398.21,320.47,398.21,320.46Z" transform="translate(-99.6 -181.93)"/><path class="cls-3" d="M429.36,304.44c-3,.48-5.85,1.51-5.85,2.65s2.71,2.12,5.57,2.6c-3,4.09-14.94,8.06-30.92,10.77.38,0-1.52,0-3.51,0-12.43,0-22.51,1.72-22.7,3.47-14.5,1.44-33.6,2.38-54,2.38-20.88,0-40.4-1-55.31-2.51-.56-1.7-10.42-3.34-22.57-3.34-1.85,0-3.07,0-2.44,0-16-2.73-27.83-6.69-30.8-10.77,2.82-.47,5.48-1.47,5.48-2.58s-2.79-2.15-5.76-2.63c2.61-4.23,14.63-8.33,31.08-11.13-.62,0,.6,0,2.44,0,12.15,0,22-1.64,22.57-3.33,14.91-1.53,34.43-2.51,55.31-2.51,20.37,0,39.47.93,54,2.38.19,1.74,10.27,3.46,22.7,3.46,2,0,3.88,0,3.5,0C414.62,296.09,426.72,300.2,429.36,304.44ZM318,323.34c52.61,0,95.26-7.37,95.26-16.46S370.58,290.42,318,290.42s-95.26,7.37-95.26,16.46,42.65,16.46,95.26,16.46" transform="translate(-99.6 -181.93)"/><ellipse class="cls-4" cx="218.37" cy="124.95" rx="87.26" ry="15.08"/><path class="cls-3" d="M398.4,339.69a3.05,3.05,0,0,0-.19.47s-1.75,0-3.56,0c-10.92,0-20,1.33-22.2,2.83l4-2.78c2-1.41,9.4-2.46,18.19-2.46,1.62,0,3.19,0,4.69.11Z" transform="translate(-99.6 -181.93)"/><path class="cls-3" d="M258.29,340.19l3.93,2.76c-2.13-1.5-11.2-2.82-22.12-2.82-1.52,0-2.61,0-2.61,0a3,3,0,0,0-.23-.73c-.24-.5-.63-1.14-.89-1.62,1.2,0,2.45-.07,3.73-.07C248.92,337.72,256.29,338.77,258.29,340.19Z" transform="translate(-99.6 -181.93)"/><path class="cls-3" d="M237.22,321.76a6.84,6.84,0,0,0,.27-1.32s1.1,0,2.61,0c12.15,0,22,1.64,22.57,3.34l-3.87,3.5c-.56-1.7-8.7-3-18.7-3-1.28,0-2.53,0-3.73.06Z" transform="translate(-99.6 -181.93)"/><path class="cls-3" d="M258.8,327.27v13.51c-.56-1.71-8.7-3.06-18.7-3.06-1.28,0-2.53,0-3.73.07V324.28c1.2,0,2.45-.06,3.73-.06C250.1,324.22,258.24,325.57,258.8,327.27Z" transform="translate(-99.6 -181.93)"/><path class="cls-3" d="M399.34,324.33v13.5c-1.5-.07-3.07-.11-4.69-.11-10.24,0-18.55,1.42-18.74,3.18V327.4c.19-1.76,8.5-3.18,18.74-3.18C396.27,324.22,397.84,324.26,399.34,324.33Z" transform="translate(-99.6 -181.93)"/><path class="cls-3" d="M375.91,340.9l-4,2.7c-14.5,1.44-33.6,2.38-54,2.38-20.88,0-40.4-1-55.31-2.51l-3.87-2.69c17.34,1.77,37.56,2.79,59.18,2.79C339.07,343.57,358.86,342.6,375.91,340.9Z" transform="translate(-99.6 -181.93)"/><path class="cls-3" d="M372,323.9l4,3.5c-17.05,1.7-36.84,2.67-57.93,2.67a589.55,589.55,0,0,1-59.18-2.8l3.87-3.5c14.91,1.52,34.43,2.51,55.31,2.51C338.35,326.28,357.45,325.34,372,323.9Z" transform="translate(-99.6 -181.93)"/><path class="cls-3" d="M375.91,327.4v13.5c-17.05,1.7-36.84,2.67-57.93,2.67-21.62,0-41.84-1-59.18-2.79V327.27a589.55,589.55,0,0,0,59.18,2.8C339.07,330.07,358.86,329.1,375.91,327.4Z" transform="translate(-99.6 -181.93)"/></g><g class="cls-2"><path class="cls-3" d="M376.46,266.73l-4-2.79a1,1,0,0,1-.49-.63l4,2.69A1.14,1.14,0,0,0,376.46,266.73Z" transform="translate(-99.6 -181.93)"/><path class="cls-3" d="M262.22,264l-3.93,2.77a1.3,1.3,0,0,0,.51-.59l3.87-2.69A1.15,1.15,0,0,1,262.22,264Z" transform="translate(-99.6 -181.93)"/><path class="cls-3" d="M398.38,285.66a7.47,7.47,0,0,0-.19.78h-.05Z" transform="translate(-99.6 -181.93)"/><path class="cls-3" d="M237.5,286.47a6.46,6.46,0,0,0-.28-1.28l.44,1.28Z" transform="translate(-99.6 -181.93)"/><path class="cls-3" d="M398.19,266.74a4.32,4.32,0,0,0,.19.48l-.24-.47Z" transform="translate(-99.6 -181.93)"/><path class="cls-3" d="M237.22,267.56a3,3,0,0,0,.28-.79h.16Z" transform="translate(-99.6 -181.93)"/><path class="cls-3" d="M318,283.56c-45.27,0-83.15,5.46-92.85,12.77l3.9-2.94c9.29-7,45.59-12.23,89-12.23,25.21,0,48,1.76,64.54,4.62,11.9,2.06,20.53,4.68,24.41,7.62l3.9,2.94C401.14,289,363.25,283.56,318,283.56Z" transform="translate(-99.6 -181.93)"/><path class="cls-3" d="M427.58,276l3.91,3.06a8.79,8.79,0,0,1,2.06,2.17l-4.19-3.37A7.48,7.48,0,0,0,427.58,276Z" transform="translate(-99.6 -181.93)"/><path class="cls-3" d="M204.46,279.07l3.91-3.06a7.59,7.59,0,0,0-1.79,1.89l-4.19,3.37A8.75,8.75,0,0,1,204.46,279.07Z" transform="translate(-99.6 -181.93)"/><path class="cls-3" d="M207.87,296.41l3.85,2.89a13.09,13.09,0,0,0-5.14-1.7l-4.19-2.83C205.07,295.2,207,295.77,207.87,296.41Z" transform="translate(-99.6 -181.93)"/><path class="cls-3" d="M424.13,299.3l3.85-2.89c.86-.65,2.85-1.22,5.57-1.65l-4.19,2.82A13.45,13.45,0,0,0,424.13,299.3Z" transform="translate(-99.6 -181.93)"/><path class="cls-3" d="M347.25,282V268.48c36,2.11,62,8,62,14.94v13.51C409.22,290,383.29,284.1,347.25,282Z" transform="translate(-99.6 -181.93)"/><path class="cls-3" d="M318,281.16c-50.41,0-91.26,7.06-91.26,15.77V283.42c0-8.71,40.85-15.77,91.26-15.77,10.24,0,20.09.29,29.28.83V282C338.06,281.45,328.21,281.16,318,281.16Z" transform="translate(-99.6 -181.93)"/><path class="cls-3" d="M433.55,281.25v13.51c-3.71.59-6,1.43-6,2.38V283.63C427.51,282.69,429.84,281.85,433.55,281.25Z" transform="translate(-99.6 -181.93)"/><path class="cls-3" d="M208.34,283.63v13.51c0-.94-2.29-1.78-6-2.37v-13.5C206.05,281.86,208.34,282.7,208.34,283.63Z" transform="translate(-99.6 -181.93)"/><path class="cls-3" d="M211.72,281.47l-2.12,1.58-1.73,1.31a1,1,0,0,0,.47-.73c0-.93-2.29-1.77-6-2.36l4.19-3.37c3,.48,5.76,1.5,5.76,2.63A1.28,1.28,0,0,1,211.72,281.47Z" transform="translate(-99.6 -181.93)"/><path class="cls-3" d="M428,284.36c-1.63-1.23-2.13-1.61-3.86-2.89a1.28,1.28,0,0,1-.62-.94c0-1.14,2.83-2.16,5.85-2.65l4.19,3.37c-3.71.6-6,1.44-6,2.38A1,1,0,0,0,428,284.36Z" transform="translate(-99.6 -181.93)"/><path class="cls-4" d="M409.22,283.42v13.51c0,8.71-40.85,15.77-91.25,15.77s-91.26-7.06-91.26-15.77V283.42c0,8.71,40.85,15.77,91.26,15.77S409.22,292.13,409.22,283.42Z" transform="translate(-99.6 -181.93)"/><path class="cls-3" d="M226.71,283.42c0,1.22.79,2.4,2.3,3.53l-3.9-2.94c-1.57-1.18-2.4-2.42-2.4-3.69,0-9.09,42.64-16.46,95.26-16.46,42.77,0,78.95,4.87,91,11.58a42.09,42.09,0,0,1-2,4.48c-3.87-2.95-12.51-5.58-24.45-7.65-16.51-2.85-39.33-4.62-64.54-4.62C267.56,267.65,226.71,274.71,226.71,283.42Z" transform="translate(-99.6 -181.93)"/><path class="cls-3" d="M409.22,283.42c0-1.2-.78-2.38-2.26-3.5a42.09,42.09,0,0,0,2-4.48c2.77,1.54,4.26,3.18,4.26,4.88,0,1.28-.83,2.51-2.41,3.7l-3.9,2.94C408.42,285.82,409.22,284.64,409.22,283.42Z" transform="translate(-99.6 -181.93)"/><path class="cls-3" d="M208.42,304.37l-3.95-3.08c4.93,3.84,16.23,7.27,31.89,9.94l1.3,2.35C223.72,311.2,212.93,307.89,208.42,304.37Z" transform="translate(-99.6 -181.93)"/><path class="cls-3" d="M431.47,301.29l-.79.62L429.3,303l-1.78,1.39c-4.53,3.54-15.41,6.87-29.38,9.23l1.19-2.33C415.12,308.6,426.52,305.15,431.47,301.29Z" transform="translate(-99.6 -181.93)"/><path class="cls-3" d="M237.66,293.88l-1.3,3.85c-18.11-3.09-30.39-7.19-33.72-11.78l4.21-2.84C209.83,287.2,221.68,291.16,237.66,293.88Z" transform="translate(-99.6 -181.93)"/><path class="cls-4" d="M406.92,300.46l-2.14,1.62-.2.15-.39.29-1,.74a1.43,1.43,0,0,0-.2.14c-8.88,6.7-43.59,11.7-85,11.7s-76.18-5-85.06-11.7l-.39-.29-.19-.15-.39-.29-.39-.3-.2-.14-.39-.3-.39-.29-.19-.15-.39-.29-.39-.3-.2-.14-.39-.3c9.29,7,45.59,12.24,89,12.24S397.64,307.47,406.92,300.46Z" transform="translate(-99.6 -181.93)"/><path class="cls-3" d="M236.36,297.73v13.5c-18.11-3.08-30.39-7.19-33.72-11.77V286C206,290.54,218.25,294.64,236.36,297.73Z" transform="translate(-99.6 -181.93)"/><path class="cls-3" d="M433.3,286v13.5c-3.37,4.6-15.74,8.72-34,11.8v-13.5C417.56,294.68,429.93,290.57,433.3,286Z" transform="translate(-99.6 -181.93)"/><path class="cls-3" d="M429.08,283.13,433.3,286c-3.37,4.6-15.74,8.71-34,11.8l-1.19-3.87C414.13,291.2,426.08,287.22,429.08,283.13Z" transform="translate(-99.6 -181.93)"/><path class="cls-4" d="M318,265.25c48.19,0,87.25,6.75,87.25,15.07S366.16,295.4,318,295.4s-87.26-6.75-87.26-15.08S269.78,265.25,318,265.25Z" transform="translate(-99.6 -181.93)"/><path class="cls-4" d="M403,277l2.15,1.61.19.15.59.44.39.3.39.29a1.39,1.39,0,0,0,.19.15c1.51,1.13,2.3,2.32,2.3,3.53,0,8.71-40.85,15.77-91.25,15.77s-91.26-7.06-91.26-15.77c0-1.21.8-2.4,2.3-3.53.07,0,.14-.11.2-.15l1.75-1.32.39-.3.2-.14.39-.3.39-.29.19-.15.39-.29c-1.44,1.08-2.2,2.21-2.2,3.37,0,8.33,39.07,15.08,87.26,15.08s87.25-6.75,87.25-15.08C405.22,279.16,404.46,278,403,277Z" transform="translate(-99.6 -181.93)"/><path class="cls-3" d="M398.39,313.12a4.1,4.1,0,0,0-.2.49s-1.73,0-3.55,0c-10.91,0-20,1.33-22.19,2.84l4-2.79c2-1.41,9.4-2.45,18.18-2.45,1.63,0,3.19,0,4.69.1Z" transform="translate(-99.6 -181.93)"/><path class="cls-3" d="M258.29,313.63l3.93,2.77c-2.14-1.5-11.23-2.83-22.12-2.83-1.52,0-2.61,0-2.61,0a2.72,2.72,0,0,0-.24-.73c-.24-.5-.62-1.13-.89-1.62,1.21,0,2.46-.06,3.74-.06C248.91,311.17,256.28,312.22,258.29,313.63Z" transform="translate(-99.6 -181.93)"/><path class="cls-3" d="M237.22,295.18a6.59,6.59,0,0,0,.27-1.3s1.09,0,2.61,0c12.12,0,22,1.64,22.57,3.34l-3.87,3.51c-.56-1.71-8.71-3.06-18.7-3.06-1.28,0-2.53,0-3.74.07Z" transform="translate(-99.6 -181.93)"/><path class="cls-3" d="M258.8,300.72v13.5c-.56-1.7-8.71-3.05-18.7-3.05-1.28,0-2.53,0-3.74.06v-13.5c1.21-.05,2.46-.07,3.74-.07C250.09,297.66,258.24,299,258.8,300.72Z" transform="translate(-99.6 -181.93)"/><path class="cls-3" d="M399.33,297.77v13.5c-1.5-.06-3.06-.1-4.69-.1-10.23,0-18.54,1.41-18.73,3.18V300.84c.19-1.76,8.5-3.18,18.73-3.18C396.27,297.66,397.83,297.7,399.33,297.77Z" transform="translate(-99.6 -181.93)"/><path class="cls-3" d="M398.19,293.91c.1.48.1.48,1.14,3.86-1.5-.07-3.06-.11-4.69-.11-10.23,0-18.54,1.42-18.73,3.18l-4-3.5c.18-1.75,10.26-3.47,22.68-3.47C396.47,293.87,398.2,293.91,398.19,293.91Z" transform="translate(-99.6 -181.93)"/><path class="cls-3" d="M429.36,277.88c-3,.49-5.85,1.51-5.85,2.65s2.7,2.13,5.57,2.6c-3,4.09-14.95,8.07-30.94,10.77.4,0-1.49,0-3.5,0-12.42,0-22.5,1.72-22.68,3.47-14.52,1.44-33.62,2.38-54,2.38-20.87,0-40.4-1-55.3-2.51-.56-1.7-10.45-3.34-22.57-3.34-1.85,0-3.07,0-2.44,0-16-2.72-27.83-6.68-30.81-10.77,2.82-.47,5.49-1.47,5.49-2.58s-2.79-2.15-5.76-2.63c2.6-4.23,14.63-8.33,31.08-11.13-.61,0,.6.05,2.44,0,12.14,0,22-1.64,22.57-3.34,14.9-1.53,34.43-2.51,55.3-2.51,20.38,0,39.47.94,54,2.38.18,1.75,10.26,3.47,22.68,3.47,2,0,3.89,0,3.5,0C414.61,269.54,426.71,273.64,429.36,277.88ZM318,296.79c52.61,0,95.25-7.37,95.25-16.47S370.58,263.86,318,263.86s-95.26,7.37-95.26,16.46,42.64,16.46,95.26,16.47" transform="translate(-99.6 -181.93)"/><path class="cls-3" d="M375.91,314.35,372,317c-14.52,1.44-33.62,2.38-54,2.38-20.87,0-40.4-1-55.3-2.51l-3.87-2.69C276.13,316,296.36,317,318,317,339.07,317,358.85,316,375.91,314.35Z" transform="translate(-99.6 -181.93)"/><path class="cls-3" d="M372,297.34l4,3.5c-17.06,1.7-36.84,2.67-57.94,2.67-21.61,0-41.84-1-59.17-2.79l3.87-3.51c14.9,1.53,34.43,2.51,55.3,2.51C338.34,299.72,357.44,298.78,372,297.34Z" transform="translate(-99.6 -181.93)"/><path class="cls-3" d="M375.91,300.84v13.51C358.85,316,339.07,317,318,317c-21.61,0-41.84-1-59.17-2.79v-13.5c17.33,1.77,37.56,2.79,59.17,2.79C339.07,303.51,358.85,302.54,375.91,300.84Z" transform="translate(-99.6 -181.93)"/></g><g class="cls-2"><path class="cls-3" d="M376.47,240.28l-4-2.78a1,1,0,0,1-.49-.63l4,2.69A1.06,1.06,0,0,0,376.47,240.28Z" transform="translate(-99.6 -181.93)"/><path class="cls-3" d="M262.22,237.51l-3.93,2.77a1.3,1.3,0,0,0,.51-.59l3.87-2.69A1.09,1.09,0,0,1,262.22,237.51Z" transform="translate(-99.6 -181.93)"/><path class="cls-3" d="M398.39,259.22a7.47,7.47,0,0,0-.19.78h-.05Z" transform="translate(-99.6 -181.93)"/><path class="cls-3" d="M237.5,260a7.45,7.45,0,0,0-.27-1.28l.43,1.29Z" transform="translate(-99.6 -181.93)"/><path class="cls-3" d="M398.2,240.3a2.27,2.27,0,0,0,.19.48l-.24-.48Z" transform="translate(-99.6 -181.93)"/><path class="cls-3" d="M237.23,241.11a2.93,2.93,0,0,0,.27-.79h.16Z" transform="translate(-99.6 -181.93)"/><path class="cls-3" d="M318,257.12c-45.26,0-83.14,5.45-92.85,12.77l3.9-2.95c9.3-7,45.59-12.23,89-12.23s79.68,5.23,89,12.24l3.9,2.94C401.14,262.58,363.25,257.12,318,257.12Z" transform="translate(-99.6 -181.93)"/><path class="cls-3" d="M427.58,249.57l3.91,3.07a8.62,8.62,0,0,1,2.06,2.17l-4.19-3.37A7.5,7.5,0,0,0,427.58,249.57Z" transform="translate(-99.6 -181.93)"/><path class="cls-3" d="M204.47,252.63l2.14-1.68,1.76-1.38a7.44,7.44,0,0,0-1.79,1.89l-4.18,3.36A8.54,8.54,0,0,1,204.47,252.63Z" transform="translate(-99.6 -181.93)"/><path class="cls-3" d="M207.87,270l3.86,2.89a13.21,13.21,0,0,0-5.15-1.7l-4.18-2.83C205.07,268.76,207,269.33,207.87,270Z" transform="translate(-99.6 -181.93)"/><path class="cls-3" d="M424.13,272.86,428,270c.86-.65,2.84-1.22,5.56-1.65l-4.19,2.82A13.51,13.51,0,0,0,424.13,272.86Z" transform="translate(-99.6 -181.93)"/><path class="cls-3" d="M409.23,257v13.5c0-8.71-40.86-15.77-91.26-15.77s-91.26,7.06-91.26,15.77V257c0-8.71,40.86-15.77,91.26-15.77S409.23,248.27,409.23,257Z" transform="translate(-99.6 -181.93)"/><path class="cls-3" d="M433.55,254.81v13.51c-3.71.59-6,1.43-6,2.37v-13.5C427.51,256.25,429.84,255.4,433.55,254.81Z" transform="translate(-99.6 -181.93)"/><path class="cls-3" d="M208.35,257.19v13.5c0-.93-2.3-1.77-5.95-2.36V254.82C206.05,255.41,208.35,256.25,208.35,257.19Z" transform="translate(-99.6 -181.93)"/><path class="cls-3" d="M211.72,255l-3.85,2.89a1,1,0,0,0,.48-.72c0-.94-2.3-1.78-5.95-2.37l4.18-3.36c3,.48,5.77,1.5,5.77,2.63A1.25,1.25,0,0,1,211.72,255Z" transform="translate(-99.6 -181.93)"/><path class="cls-3" d="M428,257.92c-1.63-1.24-2.13-1.61-3.85-2.89a1.29,1.29,0,0,1-.63-.94c0-1.14,2.84-2.17,5.85-2.65l4.19,3.37c-3.71.59-6,1.44-6,2.38A1,1,0,0,0,428,257.92Z" transform="translate(-99.6 -181.93)"/><path class="cls-4" d="M409.23,257v13.5c0,8.71-40.86,15.77-91.26,15.77s-91.26-7.06-91.26-15.77V257c0,8.71,40.86,15.77,91.26,15.77S409.23,265.69,409.23,257Z" transform="translate(-99.6 -181.93)"/><path class="cls-3" d="M226.71,257c0,1.21.8,2.4,2.3,3.53l-3.9-2.94c-1.57-1.19-2.4-2.42-2.4-3.69,0-9.09,42.64-16.46,95.26-16.46s95.25,7.37,95.26,16.46c0,1.27-.84,2.51-2.41,3.7l-3.9,2.94c1.51-1.14,2.31-2.32,2.31-3.54a4.33,4.33,0,0,0-1.86-3.18c-8.5-7.18-45.29-12.59-89.4-12.59C267.57,241.21,226.71,248.27,226.71,257Z" transform="translate(-99.6 -181.93)"/><path class="cls-3" d="M208.43,277.93l-4-3.08c4.92,3.84,16.22,7.27,31.88,9.94l1.3,2.35C223.73,284.76,212.93,281.45,208.43,277.93Z" transform="translate(-99.6 -181.93)"/><path class="cls-3" d="M431.48,274.85l-2.18,1.69-1.78,1.39c-4.53,3.54-15.41,6.87-29.37,9.23l1.18-2.33C415.12,282.16,426.52,278.71,431.48,274.85Z" transform="translate(-99.6 -181.93)"/><path class="cls-4" d="M406.92,274l-2.14,1.62-.39.29-.58.44-.39.3-.2.14a1.25,1.25,0,0,1-.19.15c-8.88,6.7-43.59,11.7-85.06,11.7s-76.18-5-85.06-11.7l-.39-.29-.19-.15-.39-.3-.39-.29-.2-.15-.39-.29-.39-.29-.19-.15-.39-.3-.39-.29-.19-.15L229,274c9.28,7,45.58,12.23,89,12.23S397.64,281,406.92,274Z" transform="translate(-99.6 -181.93)"/><path class="cls-3" d="M236.36,271.28v13.51C218.25,281.7,206,277.6,202.64,273V259.51C206,264.1,218.25,268.2,236.36,271.28Z" transform="translate(-99.6 -181.93)"/><path class="cls-3" d="M237.66,267.44l-1.3,3.84c-18.11-3.08-30.38-7.18-33.72-11.77l4.22-2.84C209.83,260.75,221.68,264.71,237.66,267.44Z" transform="translate(-99.6 -181.93)"/><path class="cls-3" d="M433.3,259.53V273c-3.37,4.6-15.74,8.71-34,11.8v-13.5C417.56,268.24,429.93,264.13,433.3,259.53Z" transform="translate(-99.6 -181.93)"/><path class="cls-3" d="M429.08,256.69l4.22,2.84c-3.37,4.6-15.74,8.71-34,11.8l-1.18-3.87C414.13,264.75,426.08,260.78,429.08,256.69Z" transform="translate(-99.6 -181.93)"/><path class="cls-4" d="M403,250.5l2.14,1.62.2.15.39.29.19.15.39.29.39.3a2.31,2.31,0,0,0,.19.14c1.51,1.14,2.31,2.32,2.31,3.54,0,8.71-40.86,15.77-91.26,15.77s-91.26-7.06-91.26-15.77c0-1.22.8-2.4,2.31-3.54l3.89-2.94c-1.44,1.09-2.2,2.22-2.2,3.38,0,8.33,39.07,15.08,87.26,15.08s87.26-6.75,87.26-15.08C405.23,252.72,404.47,251.59,403,250.5Z" transform="translate(-99.6 -181.93)"/><path class="cls-3" d="M398.2,267.46a38.07,38.07,0,0,0,1.13,3.87c-1.5-.07-3.06-.11-4.68-.11-10.24,0-18.54,1.42-18.73,3.18l-4-3.5c.19-1.75,10.26-3.47,22.69-3.47C396.47,267.43,398.2,267.47,398.2,267.46Z" transform="translate(-99.6 -181.93)"/><path class="cls-3" d="M429.36,251.44c-3,.48-5.85,1.51-5.85,2.65s2.7,2.12,5.57,2.6c-3,4.09-14.95,8.06-30.93,10.77.39,0-1.5,0-3.5,0-12.43,0-22.5,1.72-22.69,3.47-14.51,1.44-33.61,2.38-54,2.38-20.86,0-40.4-1-55.3-2.51-.55-1.7-10.44-3.34-22.56-3.34-1.85,0-3.07,0-2.45,0-16-2.73-27.83-6.69-30.8-10.77,2.82-.47,5.49-1.47,5.49-2.58s-2.79-2.15-5.77-2.63c2.61-4.23,14.63-8.33,31.08-11.13-.61,0,.61,0,2.45,0,12.13,0,22-1.64,22.56-3.33,14.9-1.53,34.44-2.51,55.3-2.51,20.38,0,39.48.93,54,2.38.19,1.74,10.26,3.46,22.69,3.46,2,0,3.88,0,3.5,0C414.61,243.09,426.72,247.2,429.36,251.44ZM318,270.34c52.62,0,95.25-7.37,95.26-16.46S370.59,237.42,318,237.42s-95.25,7.37-95.26,16.46,42.64,16.46,95.26,16.46" transform="translate(-99.6 -181.93)"/><path class="cls-4" d="M318,238.8c48.19,0,87.26,6.76,87.26,15.08S366.16,269,318,269s-87.26-6.75-87.26-15.08S269.78,238.8,318,238.8Z" transform="translate(-99.6 -181.93)"/><path class="cls-3" d="M398.39,286.68a2.82,2.82,0,0,0-.19.48s-1.73,0-3.55,0c-10.92,0-20,1.33-22.2,2.83.08,0,.14-.09.2-.14l.2-.13.21-.14.4-.28.2-.14.8-.56,2-1.39c2-1.41,9.39-2.46,18.18-2.46,1.62,0,3.18,0,4.68.11Z" transform="translate(-99.6 -181.93)"/><path class="cls-3" d="M258.29,287.19l3.93,2.76c-2.14-1.5-11.22-2.82-22.11-2.82-1.52,0-2.62,0-2.61,0a3,3,0,0,0-.24-.73c-.24-.5-.63-1.14-.9-1.62,1.22,0,2.47-.07,3.75-.07C248.91,284.72,256.28,285.77,258.29,287.19Z" transform="translate(-99.6 -181.93)"/><path class="cls-3" d="M258.8,274.27v13.51c-.56-1.71-8.7-3.06-18.69-3.06-1.28,0-2.53,0-3.75.07V271.28q1.83-.06,3.75-.06C250.1,271.22,258.24,272.57,258.8,274.27Z" transform="translate(-99.6 -181.93)"/><path class="cls-3" d="M237.22,268.74a6.65,6.65,0,0,0,.28-1.3s1.09,0,2.61,0c12.12,0,22,1.64,22.56,3.34l-3.87,3.5c-.56-1.7-8.7-3-18.69-3q-1.92,0-3.75.06Z" transform="translate(-99.6 -181.93)"/><path class="cls-3" d="M399.33,271.33v13.5c-1.5-.07-3.06-.11-4.68-.11-10.24,0-18.54,1.42-18.73,3.18V274.4c.19-1.76,8.49-3.18,18.73-3.18C396.27,271.22,397.83,271.26,399.33,271.33Z" transform="translate(-99.6 -181.93)"/><path class="cls-3" d="M375.92,287.9l-4,2.7C357.45,292,338.35,293,318,293c-20.86,0-40.4-1-55.3-2.51l-3.87-2.69c17.33,1.77,37.57,2.79,59.17,2.79C339.07,290.57,358.85,289.6,375.92,287.9Z" transform="translate(-99.6 -181.93)"/><path class="cls-3" d="M375.92,274.4v13.5c-17.07,1.7-36.85,2.67-57.95,2.67-21.6,0-41.84-1-59.17-2.79V274.27a589.49,589.49,0,0,0,59.17,2.8C339.07,277.07,358.85,276.1,375.92,274.4Z" transform="translate(-99.6 -181.93)"/><path class="cls-3" d="M372,270.9l4,3.5c-17.07,1.7-36.85,2.67-57.95,2.67a589.49,589.49,0,0,1-59.17-2.8l3.87-3.5c14.9,1.52,34.44,2.51,55.3,2.51C338.35,273.28,357.45,272.34,372,270.9Z" transform="translate(-99.6 -181.93)"/></g><g class="cls-2"><path class="cls-3" d="M376.46,213.73l-4-2.79a1,1,0,0,1-.49-.63l4,2.7A1.14,1.14,0,0,0,376.46,213.73Z" transform="translate(-99.6 -181.93)"/><path class="cls-3" d="M262.22,211l-3.93,2.77a1.3,1.3,0,0,0,.51-.59l3.87-2.69A1.15,1.15,0,0,1,262.22,211Z" transform="translate(-99.6 -181.93)"/><path class="cls-3" d="M398.38,232.66c-.08.28-.12.43-.19.78h-.05Z" transform="translate(-99.6 -181.93)"/><path class="cls-3" d="M237.5,233.47a6.46,6.46,0,0,0-.28-1.28l.44,1.28Z" transform="translate(-99.6 -181.93)"/><path class="cls-3" d="M398.19,213.74a4.32,4.32,0,0,0,.19.48l-.24-.47Z" transform="translate(-99.6 -181.93)"/><path class="cls-3" d="M237.22,214.56a3,3,0,0,0,.28-.79h.16Z" transform="translate(-99.6 -181.93)"/><path class="cls-3" d="M318,230.56c-45.27,0-83.15,5.46-92.85,12.77l3.9-2.94c9.29-7,45.59-12.23,89-12.23s79.68,5.23,88.95,12.24l3.9,2.94C401.14,236,363.25,230.56,318,230.56Z" transform="translate(-99.6 -181.93)"/><path class="cls-3" d="M427.58,223l3.91,3.06a8.65,8.65,0,0,1,2.06,2.18l-4.19-3.37A7.51,7.51,0,0,0,427.58,223Z" transform="translate(-99.6 -181.93)"/><path class="cls-3" d="M204.46,226.07l2.15-1.68,1.76-1.38a7.59,7.59,0,0,0-1.79,1.89l-4.19,3.37A8.75,8.75,0,0,1,204.46,226.07Z" transform="translate(-99.6 -181.93)"/><path class="cls-3" d="M207.87,243.41l3.85,2.89a13.09,13.09,0,0,0-5.14-1.7l-4.19-2.83C205.07,242.2,207,242.77,207.87,243.41Z" transform="translate(-99.6 -181.93)"/><path class="cls-3" d="M424.13,246.3l3.85-2.89c.86-.65,2.85-1.22,5.57-1.65l-4.19,2.82A13.45,13.45,0,0,0,424.13,246.3Z" transform="translate(-99.6 -181.93)"/><path class="cls-3" d="M409.22,230.42v13.51c0-8.71-40.85-15.77-91.25-15.77s-91.26,7.06-91.26,15.77V230.42c0-8.71,40.85-15.77,91.26-15.77S409.22,221.71,409.22,230.42Z" transform="translate(-99.6 -181.93)"/><path class="cls-3" d="M433.55,228.26v13.5c-3.71.59-6,1.44-6,2.38V230.63C427.51,229.69,429.84,228.85,433.55,228.26Z" transform="translate(-99.6 -181.93)"/><path class="cls-3" d="M208.34,230.63v13.51c0-.94-2.29-1.78-6-2.37v-13.5C206.05,228.86,208.34,229.7,208.34,230.63Z" transform="translate(-99.6 -181.93)"/><path class="cls-3" d="M211.72,228.47c-.73.53-3.21,2.39-3.85,2.89a1,1,0,0,0,.47-.73c0-.93-2.29-1.77-6-2.36l4.19-3.37c3,.48,5.76,1.5,5.76,2.63A1.28,1.28,0,0,1,211.72,228.47Z" transform="translate(-99.6 -181.93)"/><path class="cls-3" d="M428,231.36c-1.63-1.23-2.13-1.61-3.86-2.89a1.28,1.28,0,0,1-.62-.94c0-1.14,2.83-2.16,5.85-2.64l4.19,3.37c-3.71.59-6,1.43-6,2.37A1,1,0,0,0,428,231.36Z" transform="translate(-99.6 -181.93)"/><path class="cls-4" d="M409.22,230.42v13.51c0,8.71-40.85,15.77-91.25,15.77s-91.26-7.06-91.26-15.77V230.42c0,8.71,40.85,15.77,91.26,15.77S409.22,239.13,409.22,230.42Z" transform="translate(-99.6 -181.93)"/><path class="cls-3" d="M226.71,230.42c0,1.22.79,2.4,2.3,3.53l-3.9-2.94c-1.57-1.18-2.4-2.42-2.4-3.68,0-9.1,42.64-16.46,95.26-16.46s95.25,7.36,95.25,16.46c0,1.27-.83,2.5-2.41,3.69l-3.9,2.94c1.51-1.14,2.31-2.32,2.31-3.54a4.31,4.31,0,0,0-1.85-3.17c-8.51-7.19-45.3-12.6-89.4-12.6C267.56,214.65,226.71,221.71,226.71,230.42Z" transform="translate(-99.6 -181.93)"/><path class="cls-3" d="M208.42,251.37l-3.95-3.08c4.93,3.84,16.23,7.27,31.89,9.94l1.3,2.35C223.72,258.21,212.93,254.89,208.42,251.37Z" transform="translate(-99.6 -181.93)"/><path class="cls-3" d="M431.47,248.29,429.3,250l-1.78,1.39c-4.53,3.53-15.41,6.86-29.38,9.22l1.19-2.33C415.12,255.6,426.52,252.15,431.47,248.29Z" transform="translate(-99.6 -181.93)"/><path class="cls-4" d="M406.92,247.46l-2.14,1.62-.39.29-.59.45-.39.29-.19.15a1.43,1.43,0,0,1-.2.14c-8.88,6.7-43.59,11.7-85,11.7s-76.18-5-85.06-11.7l-.39-.29-.19-.15-.39-.29-.39-.3-.2-.14-.39-.3-.39-.29-.19-.15-.39-.29-.39-.3-.2-.14-.39-.3c9.29,7,45.59,12.24,89,12.24S397.64,254.47,406.92,247.46Z" transform="translate(-99.6 -181.93)"/><path class="cls-3" d="M236.36,244.73v13.5c-18.11-3.08-30.39-7.19-33.72-11.77V233C206,237.54,218.25,241.64,236.36,244.73Z" transform="translate(-99.6 -181.93)"/><path class="cls-3" d="M237.66,240.88l-1.3,3.85c-18.11-3.09-30.39-7.19-33.72-11.78l4.21-2.84C209.83,234.2,221.68,238.16,237.66,240.88Z" transform="translate(-99.6 -181.93)"/><path class="cls-3" d="M433.3,233v13.5c-3.37,4.6-15.74,8.72-34,11.8v-13.5C417.56,241.68,429.93,237.57,433.3,233Z" transform="translate(-99.6 -181.93)"/><path class="cls-3" d="M429.08,230.13,433.3,233c-3.37,4.6-15.74,8.71-34,11.8l-1.19-3.86C414.13,238.2,426.08,234.23,429.08,230.13Z" transform="translate(-99.6 -181.93)"/><path class="cls-4" d="M403,224l2.15,1.61.19.15.39.3.2.14.39.3.39.29a.9.9,0,0,0,.19.15c1.51,1.13,2.3,2.32,2.3,3.53,0,8.71-40.85,15.77-91.25,15.77s-91.26-7.06-91.26-15.77c0-1.21.8-2.4,2.3-3.53l3.9-2.94c-1.44,1.08-2.2,2.21-2.2,3.38,0,8.32,39.07,15.07,87.26,15.07s87.25-6.75,87.25-15.07C405.22,226.16,404.46,225,403,224Z" transform="translate(-99.6 -181.93)"/><path class="cls-3" d="M398.19,240.91c.1.48.1.48,1.14,3.86-1.5-.07-3.06-.11-4.69-.11-10.23,0-18.54,1.42-18.73,3.18l-4-3.5c.18-1.75,10.26-3.47,22.68-3.47C396.47,240.87,398.2,240.91,398.19,240.91Z" transform="translate(-99.6 -181.93)"/><path class="cls-3" d="M429.36,224.89c-3,.48-5.85,1.5-5.85,2.64s2.7,2.13,5.57,2.6c-3,4.1-14.95,8.07-30.94,10.78.4,0-1.49,0-3.5,0-12.42,0-22.5,1.72-22.68,3.47-14.52,1.44-33.62,2.38-54,2.38-20.87,0-40.4-1-55.3-2.51-.56-1.7-10.45-3.34-22.57-3.34-1.85,0-3.07,0-2.44,0-16-2.72-27.83-6.68-30.81-10.77,2.82-.47,5.49-1.47,5.49-2.58s-2.79-2.15-5.76-2.63c2.6-4.23,14.63-8.33,31.08-11.13-.61,0,.6,0,2.44,0,12.14,0,22-1.64,22.57-3.34,14.9-1.52,34.43-2.51,55.3-2.51,20.38,0,39.47.94,54,2.38.18,1.75,10.26,3.47,22.68,3.47,2,0,3.89-.05,3.5,0C414.61,216.54,426.71,220.64,429.36,224.89ZM318,243.79c52.61,0,95.25-7.37,95.25-16.46S370.58,210.87,318,210.87s-95.26,7.36-95.26,16.46,42.64,16.46,95.26,16.46" transform="translate(-99.6 -181.93)"/><path class="cls-4" d="M318,212.25c48.19,0,87.25,6.75,87.25,15.08S366.16,242.4,318,242.4s-87.26-6.75-87.26-15.07S269.78,212.25,318,212.25Z" transform="translate(-99.6 -181.93)"/><path class="cls-3" d="M398.39,260.12a4.1,4.1,0,0,0-.2.49s-1.73,0-3.55,0c-10.91,0-20,1.33-22.19,2.84.07,0,.14-.1.2-.14l.2-.14.2-.14.4-.28.21-.14.8-.56,2-1.39c2-1.41,9.4-2.45,18.18-2.45,1.63,0,3.19,0,4.69.1Z" transform="translate(-99.6 -181.93)"/><path class="cls-3" d="M258.29,260.63l3.93,2.77c-2.14-1.5-11.23-2.83-22.12-2.83-1.52,0-2.61,0-2.61,0a2.72,2.72,0,0,0-.24-.73c-.24-.5-.62-1.13-.89-1.62,1.21,0,2.46-.06,3.74-.06C248.91,258.17,256.28,259.22,258.29,260.63Z" transform="translate(-99.6 -181.93)"/><path class="cls-3" d="M258.8,247.72v13.5c-.56-1.7-8.71-3.05-18.7-3.05-1.28,0-2.53,0-3.74.06v-13.5c1.21,0,2.46-.07,3.74-.07C250.09,244.66,258.24,246,258.8,247.72Z" transform="translate(-99.6 -181.93)"/><path class="cls-3" d="M237.22,242.18a6.59,6.59,0,0,0,.27-1.3s1.09,0,2.61,0c12.12,0,22,1.64,22.57,3.34l-3.87,3.51c-.56-1.71-8.71-3.06-18.7-3.06-1.28,0-2.53,0-3.74.07Z" transform="translate(-99.6 -181.93)"/><path class="cls-3" d="M399.33,244.77v13.5c-1.5-.06-3.06-.1-4.69-.1-10.23,0-18.54,1.41-18.73,3.18V247.84c.19-1.76,8.5-3.18,18.73-3.18C396.27,244.66,397.83,244.7,399.33,244.77Z" transform="translate(-99.6 -181.93)"/><path class="cls-3" d="M375.91,261.35,372,264c-14.52,1.44-33.62,2.38-54,2.38-20.87,0-40.4-1-55.3-2.51l-3.87-2.69A589.34,589.34,0,0,0,318,264C339.07,264,358.85,263,375.91,261.35Z" transform="translate(-99.6 -181.93)"/><path class="cls-3" d="M375.91,247.84v13.51C358.85,263,339.07,264,318,264a589.34,589.34,0,0,1-59.17-2.8v-13.5c17.33,1.77,37.56,2.79,59.17,2.79C339.07,250.51,358.85,249.54,375.91,247.84Z" transform="translate(-99.6 -181.93)"/><path class="cls-3" d="M372,244.34l4,3.5c-17.06,1.7-36.84,2.67-57.94,2.67-21.61,0-41.84-1-59.17-2.79l3.87-3.51c14.9,1.53,34.43,2.51,55.3,2.51C338.34,246.72,357.44,245.78,372,244.34Z" transform="translate(-99.6 -181.93)"/></g><g class="cls-2"><path class="cls-3" d="M376.46,187.73l-4-2.79a1,1,0,0,1-.49-.63l4,2.69A1.14,1.14,0,0,0,376.46,187.73Z" transform="translate(-99.6 -181.93)"/><path class="cls-3" d="M262.22,185l-3.93,2.77a1.3,1.3,0,0,0,.51-.59l3.87-2.69A1.15,1.15,0,0,1,262.22,185Z" transform="translate(-99.6 -181.93)"/><path class="cls-3" d="M398.38,206.66a7.47,7.47,0,0,0-.19.78h-.05Z" transform="translate(-99.6 -181.93)"/><path class="cls-3" d="M237.5,207.47a6.46,6.46,0,0,0-.28-1.28l.44,1.28Z" transform="translate(-99.6 -181.93)"/><path class="cls-3" d="M398.19,187.74a4.32,4.32,0,0,0,.19.48l-.24-.47Z" transform="translate(-99.6 -181.93)"/><path class="cls-3" d="M237.22,188.56a3,3,0,0,0,.28-.79h.16Z" transform="translate(-99.6 -181.93)"/><path class="cls-3" d="M318,204.56c-45.27,0-83.15,5.46-92.85,12.77l3.9-2.94c9.29-7,45.59-12.23,89-12.23,25.21,0,48,1.76,64.54,4.62,11.9,2.06,20.53,4.68,24.41,7.62l3.9,2.94C401.14,210,363.25,204.56,318,204.56Z" transform="translate(-99.6 -181.93)"/><path class="cls-3" d="M427.58,197l3.91,3.06a8.79,8.79,0,0,1,2.06,2.17l-4.19-3.37A7.48,7.48,0,0,0,427.58,197Z" transform="translate(-99.6 -181.93)"/><path class="cls-3" d="M204.46,200.07l3.91-3.06a7.59,7.59,0,0,0-1.79,1.89l-4.19,3.37A8.75,8.75,0,0,1,204.46,200.07Z" transform="translate(-99.6 -181.93)"/><path class="cls-3" d="M207.87,217.41l3.85,2.89a13.09,13.09,0,0,0-5.14-1.7l-4.19-2.83C205.07,216.2,207,216.77,207.87,217.41Z" transform="translate(-99.6 -181.93)"/><path class="cls-3" d="M424.13,220.3l3.85-2.89c.86-.65,2.85-1.22,5.57-1.65l-4.19,2.82A13.45,13.45,0,0,0,424.13,220.3Z" transform="translate(-99.6 -181.93)"/><path class="cls-3" d="M347.25,203V189.48c36,2.11,62,8,62,14.94v13.51C409.22,211,383.29,205.1,347.25,203Z" transform="translate(-99.6 -181.93)"/><path class="cls-3" d="M318,202.16c-50.41,0-91.26,7.06-91.26,15.77V204.42c0-8.71,40.85-15.77,91.26-15.77,10.24,0,20.09.29,29.28.83V203C338.06,202.45,328.21,202.16,318,202.16Z" transform="translate(-99.6 -181.93)"/><path class="cls-3" d="M433.55,202.25v13.51c-3.71.59-6,1.43-6,2.38V204.63C427.51,203.69,429.84,202.85,433.55,202.25Z" transform="translate(-99.6 -181.93)"/><path class="cls-3" d="M208.34,204.63v13.51c0-.94-2.29-1.78-6-2.37v-13.5C206.05,202.86,208.34,203.7,208.34,204.63Z" transform="translate(-99.6 -181.93)"/><path class="cls-3" d="M211.72,202.47l-2.12,1.58-1.73,1.31a1,1,0,0,0,.47-.73c0-.93-2.29-1.77-6-2.36l4.19-3.37c3,.48,5.76,1.5,5.76,2.63A1.28,1.28,0,0,1,211.72,202.47Z" transform="translate(-99.6 -181.93)"/><path class="cls-3" d="M428,205.36c-1.63-1.23-2.13-1.61-3.86-2.89a1.28,1.28,0,0,1-.62-.94c0-1.14,2.83-2.16,5.85-2.65l4.19,3.37c-3.71.6-6,1.44-6,2.38A1,1,0,0,0,428,205.36Z" transform="translate(-99.6 -181.93)"/><path class="cls-4" d="M409.22,204.42v13.51c0,8.71-40.85,15.77-91.25,15.77s-91.26-7.06-91.26-15.77V204.42c0,8.71,40.85,15.77,91.26,15.77S409.22,213.13,409.22,204.42Z" transform="translate(-99.6 -181.93)"/><path class="cls-3" d="M226.71,204.42c0,1.22.79,2.4,2.3,3.53l-3.9-2.94c-1.57-1.18-2.4-2.42-2.4-3.69,0-9.09,42.64-16.46,95.26-16.46,42.77,0,78.95,4.87,91,11.58a42.09,42.09,0,0,1-2,4.48c-3.87-2.95-12.51-5.58-24.45-7.65-16.51-2.85-39.33-4.62-64.54-4.62C267.56,188.65,226.71,195.71,226.71,204.42Z" transform="translate(-99.6 -181.93)"/><path class="cls-3" d="M409.22,204.42c0-1.2-.78-2.38-2.26-3.5a42.09,42.09,0,0,0,2-4.48c2.77,1.54,4.26,3.18,4.26,4.88,0,1.28-.83,2.51-2.41,3.7l-3.9,2.94C408.42,206.82,409.22,205.64,409.22,204.42Z" transform="translate(-99.6 -181.93)"/><path class="cls-3" d="M208.42,225.37l-3.95-3.08c4.93,3.84,16.23,7.27,31.89,9.94l1.3,2.35C223.72,232.2,212.93,228.89,208.42,225.37Z" transform="translate(-99.6 -181.93)"/><path class="cls-3" d="M431.47,222.29l-.79.62L429.3,224l-1.78,1.39c-4.53,3.54-15.41,6.87-29.38,9.23l1.19-2.33C415.12,229.6,426.52,226.15,431.47,222.29Z" transform="translate(-99.6 -181.93)"/><path class="cls-3" d="M237.66,214.88l-1.3,3.85c-18.11-3.09-30.39-7.19-33.72-11.78l4.21-2.84C209.83,208.2,221.68,212.16,237.66,214.88Z" transform="translate(-99.6 -181.93)"/><path class="cls-4" d="M406.92,221.46l-2.14,1.62-.2.15-.39.29-1,.74a1.43,1.43,0,0,0-.2.14c-8.88,6.7-43.59,11.7-85,11.7s-76.18-5-85.06-11.7l-.39-.29-.19-.15-.39-.29-.39-.3-.2-.14-.39-.3-.39-.29-.19-.15-.39-.29-.39-.3-.2-.14-.39-.3c9.29,7,45.59,12.24,89,12.24S397.64,228.47,406.92,221.46Z" transform="translate(-99.6 -181.93)"/><path class="cls-3" d="M236.36,218.73v13.5c-18.11-3.08-30.39-7.19-33.72-11.77V207C206,211.54,218.25,215.64,236.36,218.73Z" transform="translate(-99.6 -181.93)"/><path class="cls-3" d="M433.3,207v13.5c-3.37,4.6-15.74,8.72-34,11.8v-13.5C417.56,215.68,429.93,211.57,433.3,207Z" transform="translate(-99.6 -181.93)"/><path class="cls-3" d="M429.08,204.13,433.3,207c-3.37,4.6-15.74,8.71-34,11.8l-1.19-3.87C414.13,212.2,426.08,208.22,429.08,204.13Z" transform="translate(-99.6 -181.93)"/><path class="cls-4" d="M318,186.25c48.19,0,87.25,6.75,87.25,15.07S366.16,216.4,318,216.4s-87.26-6.75-87.26-15.08S269.78,186.25,318,186.25Z" transform="translate(-99.6 -181.93)"/><path class="cls-4" d="M403,198l2.15,1.61.19.15.59.44.39.3.39.29a1.39,1.39,0,0,0,.19.15c1.51,1.13,2.3,2.32,2.3,3.53,0,8.71-40.85,15.77-91.25,15.77s-91.26-7.06-91.26-15.77c0-1.21.8-2.4,2.3-3.53.07,0,.14-.11.2-.15l1.75-1.32.39-.3.2-.14.39-.3.39-.29.19-.15.39-.29c-1.44,1.08-2.2,2.21-2.2,3.37,0,8.33,39.07,15.08,87.26,15.08s87.25-6.75,87.25-15.08C405.22,200.16,404.46,199,403,198Z" transform="translate(-99.6 -181.93)"/><path class="cls-3" d="M398.39,234.12a4.1,4.1,0,0,0-.2.49s-1.73,0-3.55,0c-10.91,0-20,1.33-22.19,2.84l4-2.79c2-1.41,9.4-2.45,18.18-2.45,1.63,0,3.19,0,4.69.1Z" transform="translate(-99.6 -181.93)"/><path class="cls-3" d="M258.29,234.63l3.93,2.77c-2.14-1.5-11.23-2.83-22.12-2.83-1.52,0-2.61,0-2.61,0a2.72,2.72,0,0,0-.24-.73c-.24-.5-.62-1.13-.89-1.62,1.21,0,2.46-.06,3.74-.06C248.91,232.17,256.28,233.22,258.29,234.63Z" transform="translate(-99.6 -181.93)"/><path class="cls-3" d="M237.22,216.18a6.59,6.59,0,0,0,.27-1.3s1.09,0,2.61,0c12.12,0,22,1.64,22.57,3.34l-3.87,3.51c-.56-1.71-8.71-3.06-18.7-3.06-1.28,0-2.53,0-3.74.07Z" transform="translate(-99.6 -181.93)"/><path class="cls-3" d="M258.8,221.72v13.5c-.56-1.7-8.71-3.05-18.7-3.05-1.28,0-2.53,0-3.74.06v-13.5c1.21,0,2.46-.07,3.74-.07C250.09,218.66,258.24,220,258.8,221.72Z" transform="translate(-99.6 -181.93)"/><path class="cls-3" d="M399.33,218.77v13.5c-1.5-.06-3.06-.1-4.69-.1-10.23,0-18.54,1.41-18.73,3.18V221.84c.19-1.76,8.5-3.18,18.73-3.18C396.27,218.66,397.83,218.7,399.33,218.77Z" transform="translate(-99.6 -181.93)"/><path class="cls-3" d="M398.19,214.91c.1.48.1.48,1.14,3.86-1.5-.07-3.06-.11-4.69-.11-10.23,0-18.54,1.42-18.73,3.18l-4-3.5c.18-1.75,10.26-3.47,22.68-3.47C396.47,214.87,398.2,214.91,398.19,214.91Z" transform="translate(-99.6 -181.93)"/><path class="cls-3" d="M429.36,198.88c-3,.49-5.85,1.51-5.85,2.65s2.7,2.13,5.57,2.6c-3,4.09-14.95,8.07-30.94,10.77.4,0-1.49,0-3.5,0-12.42,0-22.5,1.72-22.68,3.47-14.52,1.44-33.62,2.38-54,2.38-20.87,0-40.4-1-55.3-2.51-.56-1.7-10.45-3.34-22.57-3.34-1.85,0-3.07,0-2.44,0-16-2.72-27.83-6.68-30.81-10.77,2.82-.47,5.49-1.47,5.49-2.58s-2.79-2.15-5.76-2.63c2.6-4.23,14.63-8.33,31.08-11.13-.61,0,.6,0,2.44,0,12.14,0,22-1.64,22.57-3.34,14.9-1.53,34.43-2.51,55.3-2.51,20.38,0,39.47.94,54,2.38.18,1.75,10.26,3.47,22.68,3.47,2,0,3.89-.05,3.5,0C414.61,190.54,426.71,194.64,429.36,198.88ZM318,217.79c52.61,0,95.25-7.37,95.25-16.47S370.58,184.86,318,184.86s-95.26,7.37-95.26,16.46,42.64,16.46,95.26,16.47" transform="translate(-99.6 -181.93)"/><path class="cls-3" d="M375.91,235.35,372,238c-14.52,1.44-33.62,2.38-54,2.38-20.87,0-40.4-1-55.3-2.51l-3.87-2.69C276.13,237,296.36,238,318,238,339.07,238,358.85,237,375.91,235.35Z" transform="translate(-99.6 -181.93)"/><path class="cls-3" d="M372,218.34l4,3.5c-17.06,1.7-36.84,2.67-57.94,2.67-21.61,0-41.84-1-59.17-2.79l3.87-3.51c14.9,1.53,34.43,2.51,55.3,2.51C338.34,220.72,357.44,219.78,372,218.34Z" transform="translate(-99.6 -181.93)"/><path class="cls-3" d="M375.91,221.84v13.51C358.85,237,339.07,238,318,238c-21.61,0-41.84-1-59.17-2.79v-13.5c17.33,1.77,37.56,2.79,59.17,2.79C339.07,224.51,358.85,223.54,375.91,221.84Z" transform="translate(-99.6 -181.93)"/></g><g class="cls-2"><g class="cls-5"><path class="cls-6" d="M307,208.46c-2.56-.52-22.32-4.59-19.41-6a17.11,17.11,0,0,1,5.2-.46c5.64,0,14.07.62,17.58.89L307,208.46m28.19,0-3.38-5.52c3.51-.27,11.95-.89,17.59-.89a17.11,17.11,0,0,1,5.2.46c2.91,1.36-16.86,5.43-19.41,6m-24.59-9.14c-2.57-.52-22.32-4.59-19.42-5.95a17.53,17.53,0,0,1,5.19-.45c5.64,0,14.08.61,17.59.89l-3.36,5.51m21,0-3.37-5.51c3.51-.28,12-.89,17.6-.89a17.53,17.53,0,0,1,5.19.45c2.9,1.36-16.86,5.43-19.42,5.95m21.43-9.08c-9.43,0-22,.69-31.93,1.35-9.91-.66-22.49-1.35-31.93-1.35-6.3,0-11.2.31-13,1.14-3.58,1.68,6.64,5,18.69,8.1-3.31-.1-6.48-.17-9.36-.17-6.3,0-11.2.31-13,1.14-7.26,3.4,42.14,13.57,48.54,14.88l0,0,0,0c6.41-1.31,55.8-11.48,48.55-14.88-1.78-.83-6.68-1.14-13-1.14-2.88,0-6.06.07-9.36.17,12-3.09,22.26-6.42,18.68-8.1-1.77-.83-6.67-1.14-13-1.14" transform="translate(-99.6 -181.93)"/></g></g><g class="cls-2"><path class="cls-3" d="M275.86,209.84l-11.38-10c-2.61-2.29-3.7-6.27-2.62-11.14l11.39,10C272.17,203.56,273.25,207.54,275.86,209.84Z" transform="translate(-99.6 -181.93)"/><path class="cls-3" d="M133.88,305.69c-3.84,16.13-2.83,30.31,2,41.36l-1.33-1.17-1.41-1.24-1.46-1.29L130.23,342l-1.49-1.31-1.46-1.29-1.41-1.24L124.54,337c-4.88-11-5.88-25.23-2-41.36,10.24-43,51.1-83.63,91.26-90.71,17.43-3.08,31.86.67,41.77,9.42l11.39,10c-9.92-8.75-24.35-12.49-41.78-9.42C185,222.06,144.13,262.67,133.88,305.69Z" transform="translate(-99.6 -181.93)"/><path class="cls-3" d="M135.92,347.05a41,41,0,0,0,10.34,14.3l-11.38-10A40.79,40.79,0,0,1,124.54,337l5.69,5,.74.66,1.48,1.3.73.65,1.41,1.24.68.59A5.17,5.17,0,0,1,135.92,347.05Z" transform="translate(-99.6 -181.93)"/><path class="cls-3" d="M125,366.06l11.39,10c-2-1.79-5-2.56-8.57-1.93a17.1,17.1,0,0,0-3,.84l-11.39-10a17.33,17.33,0,0,1,3-.84C120,363.5,123,364.27,125,366.06Z" transform="translate(-99.6 -181.93)"/><path class="cls-3" d="M276.91,200.55l11.39,10c11.18,13,16.16,32.29,12.92,55.35l-11.38-10C293.08,232.84,288.1,213.58,276.91,200.55Z" transform="translate(-99.6 -181.93)"/><path class="cls-3" d="M289.84,255.89l11.38,10a26.28,26.28,0,0,0-7.6,12.58c-1.08,4.54-.28,8.32,1.86,10.74l-11.38-10c-2.14-2.42-3-6.2-1.87-10.74A26.29,26.29,0,0,1,289.84,255.89Z" transform="translate(-99.6 -181.93)"/><path class="cls-4" d="M255.53,214.36l11.38,10c12.94,11.4,18.19,31.31,12.39,55.66-10.25,43-51.11,83.64-91.26,90.72-17.43,3.08-31.85-.67-41.77-9.41l-11.38-10c9.91,8.74,24.34,12.48,41.76,9.41,40.16-7.08,81-47.69,91.27-90.72C273.72,245.66,268.46,225.76,255.53,214.36Z" transform="translate(-99.6 -181.93)"/><path class="cls-3" d="M289.84,255.89a26.29,26.29,0,0,0-7.61,12.59c-1.08,4.54-.27,8.32,1.87,10.74-8.1,23.19-22.79,45.25-40.94,63.06a12.72,12.72,0,0,0-3.61.14c-8.16,1.44-16.45,9.6-18.67,18.33-15.59,10.79-32.49,18.36-49.31,21.33-17.21,3-32.13.83-43.85-5.5,1.55-8.33-3.34-13.86-11.31-12.45a17.33,17.33,0,0,0-3,.84c-10.8-12.69-15.76-31.24-13-53.41a26.31,26.31,0,0,0,7.28-12.29c1.1-4.61.25-8.43-2-10.84,7.9-23.8,22.81-46.52,41.36-64.78a13.32,13.32,0,0,0,2.9-.2c8-1.41,16-9.23,18.49-17.72,15.9-11.2,33.21-19.08,50.43-22.12,16.81-3,31.43-1,43,5-1.92,8.67,3,14.51,11.19,13.07a17.47,17.47,0,0,0,3.86-1.18C288.1,213.58,293.08,232.84,289.84,255.89ZM176.65,360.74c40.16-7.08,81-47.69,91.27-90.72s-14-72.15-54.16-65.07-81,47.69-91.26,90.71,14,72.16,54.15,65.08" transform="translate(-99.6 -181.93)"/><path class="cls-4" d="M213.76,205c40.15-7.08,64.4,22.05,54.16,65.07s-51.11,83.64-91.27,90.72-64.4-22.05-54.15-65.08S173.6,212,213.76,205Z" transform="translate(-99.6 -181.93)"/><path class="cls-3" d="M220.88,360.75l11.38,10c-15.59,10.79-32.49,18.36-49.3,21.33-17.22,3-32.13.84-43.86-5.5l-11.38-10c11.72,6.33,26.64,8.53,43.85,5.5C188.39,379.11,205.29,371.54,220.88,360.75Z" transform="translate(-99.6 -181.93)"/><path class="cls-3" d="M243.16,342.28l11.38,10a12.72,12.72,0,0,0-3.61.14c-8.16,1.44-16.45,9.6-18.67,18.33l-11.38-10c2.22-8.73,10.51-16.89,18.67-18.33A12.72,12.72,0,0,1,243.16,342.28Z" transform="translate(-99.6 -181.93)"/><path class="cls-3" d="M284.1,279.22l11.38,10c-8.1,23.2-22.79,45.25-40.94,63.06l-11.38-10C261.31,324.47,276,302.41,284.1,279.22Z" transform="translate(-99.6 -181.93)"/></g><g class="cls-2"><g class="cls-7"><path class="cls-6" d="M165.63,309.53c-1.7-2-14.76-17.74-9.61-23,1.26-1.28,3.43-1.76,6-1.76,5.64,0,13.06,2.38,16.13,3.43l-12.48,21.33m28.19,0,5.74-21.33c4-1.05,13.42-3.43,19.06-3.43,2.52,0,4.29.48,4.45,1.76.66,5.26-25.83,21-29.25,23m-9.52-35.3c-1.7-2-14.76-17.75-9.61-23,1.26-1.28,3.43-1.76,5.95-1.76,5.65,0,13.07,2.38,16.14,3.43L184.3,274.23m21,0,5.75-21.34c4-1,13.42-3.43,19.06-3.43,2.52,0,4.28.48,4.44,1.76.66,5.26-25.82,21-29.25,23m36.43-35.12c-9.44,0-23.15,2.67-34.16,5.21-8.83-2.54-20.27-5.21-29.71-5.21-6.31,0-11.73,1.19-14.88,4.41-6.35,6.48-1.62,19.35,5.32,31.33a69,69,0,0,0-9.08-.67c-6.31,0-11.72,1.19-14.87,4.4-12.87,13.15,19.76,52.47,24,57.52l0-.1,0,.1c8.57-5.05,74.78-44.37,73.13-57.52-.4-3.21-4.79-4.4-11.09-4.4a82.37,82.37,0,0,0-9.65.67c17.16-12,32.88-24.85,32.07-31.33-.41-3.22-4.81-4.41-11.12-4.41" transform="translate(-99.6 -181.93)"/></g></g></svg>